<svg width="21" height="14" viewBox="0 0 21 14" fill="none" xmlns="http://www.w3.org/2000/svg">
<path d="M14.8381 7C16.1632 7 17.229 5.88 17.229 4.5C17.229 3.12 16.1632 2 14.8381 2C13.513 2 12.4375 3.12 12.4375 4.5C12.4375 5.88 13.513 7 14.8381 7ZM7.63637 6C9.23035 6 10.5075 4.66 10.5075 3C10.5075 1.34 9.23035 0 7.63637 0C6.0424 0 4.75569 1.34 4.75569 3C4.75569 4.66 6.0424 6 7.63637 6ZM14.8381 9C13.0809 9 9.55683 9.92 9.55683 11.75V14H20.1193V11.75C20.1193 9.92 16.5953 9 14.8381 9ZM7.63637 8C5.39904 8 0.914783 9.17 0.914783 11.5V14H7.63637V11.75C7.63637 10.9 7.95325 9.41 9.91211 8.28C9.07671 8.1 8.27012 8 7.63637 8Z" fill="#243A81"/>
</svg>
