<?xml version="1.0" standalone="no"?>
<!DOCTYPE svg PUBLIC "-//W3C//DTD SVG 20010904//EN"
 "http://www.w3.org/TR/2001/REC-SVG-20010904/DTD/svg10.dtd">
<svg version="1.0" xmlns="http://www.w3.org/2000/svg"
 width="236.000000pt" height="236.000000pt" viewBox="0 0 236.000000 236.000000"
 preserveAspectRatio="xMidYMid meet">
<metadata>
Created by potrace 1.14, written by Peter Selinger 2001-2017
</metadata>
<g transform="translate(0.000000,236.000000) scale(0.100000,-0.100000)"
fill="#000000" stroke="none">
<path d="M14 1906 c0 -19 4 -32 9 -29 4 2 7 -5 7 -16 0 -11 5 -23 10 -26 6 -3
10 -16 10 -29 0 -12 6 -28 13 -35 10 -12 8 -13 -8 -7 -20 6 -20 6 0 -9 11 -9
21 -20 21 -25 1 -6 3 -13 4 -17 1 -5 2 -11 1 -15 0 -5 4 -8 10 -8 6 0 8 -7 5
-17 -4 -9 -1 -20 6 -24 10 -7 10 -11 0 -21 -6 -6 -12 -21 -11 -33 1 -17 2 -16
8 5 l7 25 13 -23 c7 -13 10 -30 7 -37 -2 -7 2 -16 10 -19 8 -3 14 -16 14 -29
0 -13 4 -27 9 -33 19 -20 29 -70 18 -90 -10 -18 -9 -18 8 -4 10 8 16 9 11 3
-4 -7 -1 -23 6 -35 7 -13 11 -29 10 -35 -2 -7 2 -13 8 -13 6 0 9 -4 5 -9 -3
-5 -1 -12 5 -16 6 -4 7 -11 4 -17 -4 -6 -1 -14 6 -18 7 -4 12 -19 13 -34 0
-14 3 -26 8 -26 5 0 9 -8 9 -17 0 -9 9 -36 20 -59 12 -23 22 -50 24 -60 3 -11
9 -32 15 -48 10 -24 9 -27 -2 -20 -7 5 -6 2 3 -6 8 -8 21 -35 29 -60 7 -25 16
-52 20 -60 10 -20 2 -42 -11 -34 -7 4 -8 2 -4 -5 6 -9 11 -9 22 0 9 7 14 8 14
1 0 -6 -4 -14 -10 -17 -5 -3 -10 -12 -10 -18 0 -7 4 -6 10 3 7 11 11 8 20 -15
32 -82 39 -110 30 -119 -6 -6 0 -20 15 -38 15 -17 22 -35 18 -45 -4 -10 -2
-14 4 -10 5 3 10 1 11 -6 0 -7 11 -40 23 -74 l23 -63 87 0 c82 0 88 1 95 23 4
12 6 22 4 22 -2 0 3 11 10 25 8 14 13 28 12 33 -1 4 2 7 8 7 5 0 14 10 20 23
11 21 10 21 -4 3 -9 -11 -16 -15 -16 -10 0 6 4 14 9 19 4 6 14 31 21 58 7 26
17 47 21 47 12 0 11 -14 -2 -27 -8 -8 -7 -13 3 -18 7 -5 10 -5 6 0 -4 4 -3 14
4 22 8 10 8 17 0 25 -15 15 -16 38 -1 38 5 0 8 -4 4 -9 -3 -5 0 -13 7 -17 7
-4 10 -4 6 1 -4 4 0 14 10 22 9 8 11 12 5 8 -23 -11 -32 4 -20 34 6 17 15 27
20 24 5 -3 6 4 3 15 -5 14 0 28 13 41 12 12 17 21 13 21 -5 0 -9 7 -9 15 0 8
6 15 14 15 7 0 13 5 13 11 0 5 -4 7 -10 4 -16 -10 2 28 19 42 14 11 14 12 1
13 -12 0 -12 2 -2 9 7 4 12 12 11 17 -1 5 3 23 10 39 7 17 14 35 15 40 1 6 6
20 10 33 8 23 26 31 26 10 0 -6 2 -9 5 -6 10 10 -7 38 -19 31 -6 -3 -6 -1 1 8
7 7 13 19 13 25 0 7 5 25 12 41 6 15 12 31 12 35 1 4 10 14 21 23 17 14 17 16
2 11 -15 -5 -16 -3 -5 17 12 22 14 28 17 48 0 5 5 8 10 5 5 -3 9 5 9 18 -1 37
22 96 37 96 19 0 28 17 14 26 -8 4 -9 3 -5 -4 4 -7 2 -12 -4 -12 -8 0 -9 7 -5
18 4 9 12 29 17 45 8 22 15 27 36 24 14 -2 28 -9 30 -17 3 -7 0 -10 -7 -6 -7
5 -9 1 -4 -10 5 -15 7 -15 15 0 5 9 18 21 30 27 18 10 20 9 15 -5 -5 -13 -3
-15 12 -7 10 6 22 7 26 3 5 -4 5 -1 1 6 -4 7 -11 10 -16 7 -5 -3 -7 4 -5 15 3
13 0 18 -7 14 -7 -5 -8 -2 -3 6 6 9 4 11 -5 5 -8 -5 -11 -4 -7 3 10 15 -1 39
-19 39 -8 0 -13 -5 -11 -11 3 -6 10 -10 16 -9 6 2 11 -1 11 -7 0 -11 -28 -9
-46 3 -17 10 -25 -4 -11 -21 9 -13 9 -14 0 -8 -8 4 -12 2 -10 -6 2 -7 2 -10 0
-5 -3 4 -8 5 -13 2 -5 -3 -7 3 -5 12 2 10 4 24 4 30 1 7 4 12 9 11 15 -3 42
14 36 24 -3 5 -13 4 -22 -4 -15 -11 -15 -11 -5 3 7 9 9 20 5 25 -4 4 1 2 11
-5 14 -11 20 -11 32 -1 11 9 19 10 26 3 8 -8 7 -13 0 -18 -8 -4 -4 -13 11 -26
13 -12 17 -18 11 -14 -18 9 -16 -1 5 -25 9 -11 18 -25 18 -30 1 -6 2 -11 4
-12 1 -2 3 -10 5 -18 2 -8 13 -39 23 -68 12 -30 15 -49 9 -45 -7 3 -9 3 -5 -2
4 -4 3 -14 -3 -21 -9 -11 -6 -16 14 -23 23 -9 37 -29 37 -52 0 -6 -6 -7 -12
-3 -7 4 -2 -3 10 -16 14 -13 22 -30 19 -41 -3 -10 1 -20 9 -23 22 -8 16 -25
-6 -19 -11 3 -20 0 -20 -6 0 -5 6 -8 14 -5 20 8 15 -20 -9 -48 l-20 -23 26 23
c27 23 49 29 49 12 0 -5 -8 -10 -17 -11 -15 0 -14 -2 3 -9 20 -8 40 -51 35
-77 -1 -7 4 -13 11 -13 9 0 9 -3 0 -12 -15 -15 -15 -28 -1 -28 5 0 7 6 3 13
-4 8 -4 9 3 2 5 -5 14 -22 21 -37 9 -21 8 -29 -3 -38 -15 -13 -9 -44 7 -34 6
4 6 9 -2 14 -9 5 -9 9 -1 14 6 4 13 1 16 -6 24 -71 31 -97 24 -92 -5 3 -9 0
-9 -5 0 -6 7 -11 15 -11 12 0 21 -21 13 -32 -1 -2 4 -13 10 -25 7 -12 8 -24 3
-27 -5 -3 -7 -16 -3 -28 4 -16 2 -19 -8 -13 -9 5 -11 4 -6 -4 11 -17 29 -2 23
20 -3 11 -2 19 2 19 6 0 42 -96 46 -120 0 -3 4 -10 8 -17 4 -6 1 -13 -5 -16
-10 -3 -10 -8 1 -18 12 -12 13 -12 6 0 -6 10 -4 12 4 7 7 -5 9 -16 5 -28 -4
-14 -2 -18 5 -14 7 4 11 0 11 -11 0 -11 5 -24 12 -31 8 -8 8 -15 -1 -26 -22
-27 24 -46 111 -46 l78 0 19 43 c10 23 22 52 25 65 4 12 13 22 19 22 7 0 6 4
-3 10 -10 6 -11 10 -2 10 6 0 11 3 11 8 -4 21 2 42 11 42 7 0 7 -7 -1 -21 -9
-17 -8 -20 2 -14 9 6 10 3 5 -11 -4 -10 -3 -15 1 -10 11 11 11 60 0 67 -5 4
-4 16 4 30 7 13 12 28 11 33 -2 4 7 24 18 43 11 20 19 38 16 41 -12 11 15 41
32 35 14 -5 13 -3 -3 10 -16 13 -17 17 -6 31 7 9 10 16 5 16 -4 0 -3 5 4 12 7
7 12 21 12 31 0 16 3 17 15 7 16 -13 35 -6 34 13 0 9 -2 9 -6 0 -6 -17 -20
-16 -27 2 -8 22 4 45 23 45 14 -1 13 -3 -3 -15 -11 -8 -15 -15 -9 -15 6 0 16
7 23 15 10 12 9 16 -4 21 -17 7 -22 34 -6 34 6 0 9 3 9 8 -1 4 0 10 1 15 4 12
7 26 9 37 0 6 5 10 11 10 5 0 8 -6 6 -12 -1 -7 -1 -10 1 -5 3 4 8 5 12 3 4 -3
8 1 8 9 0 8 -4 12 -9 9 -4 -3 -8 0 -8 6 0 6 -5 8 -12 4 -10 -6 -10 -4 0 8 7 9
15 27 17 41 3 13 16 49 29 80 14 30 22 58 18 62 -4 4 4 4 18 1 21 -6 22 -5 7
4 -9 6 -15 15 -12 21 4 5 8 17 10 26 2 10 9 32 16 48 6 17 13 35 15 40 1 6 8
24 15 40 7 17 11 34 10 39 -1 5 6 5 16 2 14 -6 16 -5 6 5 -18 18 -16 26 9 32
12 4 19 9 15 13 -4 4 1 13 11 21 15 13 15 13 -6 3 -12 -6 -20 -15 -17 -21 4
-5 1 -9 -4 -9 -13 0 -13 0 0 39 10 30 44 58 62 53 5 -1 5 3 2 9 -5 8 -10 8
-18 0 -13 -13 -27 -14 -27 -3 0 5 10 14 23 21 13 7 15 10 4 6 -12 -3 -17 -1
-14 7 2 7 11 12 20 10 8 -1 18 2 22 8 4 6 -1 7 -10 4 -14 -6 -16 -2 -12 22 7
44 24 81 39 87 8 3 9 6 1 6 -12 1 -6 41 6 41 4 0 8 16 9 35 l3 35 -61 0 c-41
0 -66 -5 -76 -15 -8 -8 -14 -16 -13 -17 7 -11 -15 -47 -24 -42 -9 5 -9 4 -1
-5 15 -16 -13 -94 -30 -84 -7 4 -7 1 1 -7 15 -16 6 -40 -16 -40 -14 0 -14 -2
-1 -10 12 -7 12 -12 2 -22 -6 -6 -12 -19 -12 -28 0 -10 -10 -22 -22 -29 -13
-6 -15 -9 -5 -7 20 6 20 3 2 -44 -7 -19 -14 -28 -14 -20 -1 13 -2 13 -11 0 -6
-9 -5 -17 1 -21 7 -4 4 -20 -7 -45 -9 -21 -16 -45 -15 -51 1 -7 -3 -13 -9 -13
-6 0 -8 -4 -5 -10 3 -5 2 -10 -4 -10 -6 0 -7 -7 -4 -17 5 -12 3 -14 -7 -8 -8
5 -11 4 -6 -3 4 -6 0 -27 -8 -46 -8 -19 -11 -38 -8 -42 4 -4 1 -4 -7 1 -10 6
-12 3 -7 -13 4 -12 1 -26 -9 -36 -9 -9 -13 -20 -10 -26 3 -5 -2 -10 -12 -10
-12 0 -14 -3 -6 -8 9 -6 8 -19 -5 -55 -9 -26 -21 -47 -25 -47 -5 0 -5 4 -2 10
4 6 -1 7 -11 3 -13 -5 -15 -3 -9 8 5 8 4 11 0 6 -16 -14 -14 -36 3 -30 11 5
13 3 7 -7 -5 -9 -4 -11 3 -6 7 4 12 2 12 -3 0 -6 -3 -11 -7 -11 -5 0 -9 -12
-10 -26 0 -15 -6 -30 -13 -34 -6 -4 -11 -11 -10 -16 4 -26 -9 -44 -27 -38 -17
6 -17 6 -1 -7 17 -13 16 -17 -5 -71 -12 -32 -25 -58 -30 -58 -4 0 -6 3 -6 8 3
19 -2 33 -11 27 -5 -3 -10 -1 -10 6 0 7 -3 9 -7 5 -5 -4 1 -14 11 -22 11 -8
16 -14 12 -14 -5 0 -3 -7 4 -15 10 -12 10 -18 0 -30 -7 -8 -9 -15 -5 -15 4 0
2 -6 -4 -13 -6 -8 -7 -18 -3 -23 4 -4 0 -3 -9 4 -16 12 -29 7 -29 -10 0 -5 4
-7 9 -3 5 3 13 0 17 -6 5 -8 3 -9 -6 -4 -10 6 -12 4 -7 -7 4 -13 0 -15 -21
-13 -15 2 -33 -2 -39 -7 -19 -15 -16 1 4 20 12 12 18 13 21 4 4 -14 22 -17 22
-3 0 14 -31 22 -45 11 -9 -7 -16 -6 -25 5 -7 8 -9 15 -5 15 4 0 2 7 -5 15 -7
8 -10 15 -6 15 4 0 0 13 -9 29 -8 17 -12 38 -8 47 4 11 3 15 -4 11 -6 -4 -14
0 -17 9 -8 21 -8 24 5 24 5 0 8 -4 5 -8 -3 -5 2 -9 10 -9 9 0 11 4 5 10 -5 5
-7 16 -4 23 3 8 0 14 -7 14 -6 0 -8 -4 -5 -10 3 -5 -1 -10 -9 -10 -9 0 -16 8
-16 19 0 11 -5 23 -10 26 -6 4 -8 10 -5 15 3 5 1 11 -4 15 -6 3 -8 12 -4 20 3
8 0 15 -6 15 -6 0 -11 5 -11 11 0 6 9 8 20 4 12 -4 20 -2 20 5 0 6 -4 9 -8 6
-12 -7 -54 23 -47 34 3 5 1 11 -5 15 -6 4 -8 11 -4 16 3 5 0 17 -8 26 -11 14
-11 16 1 9 8 -5 6 2 -5 19 -22 33 -27 57 -11 49 7 -3 4 1 -5 9 -10 8 -15 17
-11 20 3 4 1 7 -6 7 -7 0 -9 5 -6 10 3 6 1 10 -5 10 -7 0 -9 7 -6 17 4 9 2 19
-4 23 -6 4 -12 15 -14 26 -2 10 -9 31 -15 47 -6 15 -9 27 -7 27 3 0 -4 17 -14
38 -13 27 -15 40 -7 50 8 10 7 12 -3 10 -7 -2 -15 3 -18 11 -3 8 0 11 7 7 7
-5 9 -1 5 8 -3 9 -10 13 -15 10 -5 -3 -9 -1 -9 5 0 5 -3 17 -7 27 -4 12 -3 15
5 10 16 -10 3 26 -15 40 -20 17 -34 72 -21 80 7 5 8 2 3 -7 -5 -8 -4 -10 0 -6
5 4 10 15 11 24 2 12 0 13 -9 4 -16 -16 -32 -14 -18 2 6 8 7 18 3 22 -4 5 0 6
10 2 17 -6 20 15 3 30 -4 4 -5 3 -2 -3 4 -7 0 -15 -9 -18 -8 -3 -12 -10 -9
-16 3 -5 1 -10 -4 -10 -14 0 -14 6 -1 30 8 16 8 18 -5 14 -8 -4 -15 -2 -15 4
0 6 -3 19 -6 29 -5 16 -4 16 12 -2 15 -18 16 -18 10 -2 -3 10 -6 21 -6 23 0 2
-6 4 -14 4 -18 0 -39 60 -30 86 4 14 3 15 -4 6 -7 -11 -10 -11 -15 3 -6 13
-22 16 -96 14 -67 -1 -88 -5 -85 -14 3 -7 -2 -20 -11 -29 -9 -9 -14 -16 -10
-16 4 0 -1 -7 -10 -16 -13 -13 -13 -19 -3 -32 11 -14 10 -15 -7 -8 -15 5 -17
4 -8 -5 11 -11 3 -47 -24 -109 -3 -8 -5 -19 -4 -24 1 -5 -4 -6 -12 -3 -8 3
-20 1 -28 -5 -11 -8 -11 -9 3 -4 10 3 20 1 23 -4 4 -6 1 -10 -5 -10 -6 0 -8
-5 -4 -12 4 -6 -1 -17 -11 -25 -11 -7 -14 -13 -8 -13 6 0 9 -9 6 -20 -3 -11
-9 -20 -14 -20 -5 0 -6 6 -3 13 2 7 -3 21 -12 32 -8 11 -13 14 -9 7 4 -7 1
-21 -7 -30 -12 -16 -11 -16 6 -2 18 14 19 13 13 -2 -3 -10 -2 -20 4 -23 11 -7
2 -25 -12 -25 -6 0 -8 4 -4 9 3 5 1 12 -4 15 -5 4 -8 -1 -7 -10 1 -8 9 -19 16
-24 8 -5 11 -12 7 -16 -3 -4 -12 -2 -19 3 -15 12 -49 13 -42 2 2 -5 11 -6 18
-3 18 7 41 -22 25 -32 -8 -5 -9 -3 -4 6 5 9 4 11 -4 6 -9 -6 -9 -11 -1 -21 8
-9 7 -14 -4 -18 -8 -3 -14 -18 -14 -34 0 -15 -9 -48 -19 -73 -11 -25 -23 -57
-27 -72 -3 -15 -11 -40 -18 -55 -6 -15 -12 -32 -14 -38 -17 -55 -46 -130 -54
-140 -5 -6 -7 -15 -3 -18 3 -4 -5 -8 -18 -8 -17 -1 -19 -3 -6 -6 18 -5 22 -15
9 -27 -4 -4 -7 -11 -8 -14 -3 -29 -18 -61 -25 -56 -5 3 -6 -2 -3 -10 3 -9 1
-16 -5 -16 -6 0 -11 5 -11 10 0 6 -5 10 -10 10 -6 0 -5 -8 2 -19 7 -11 16 -17
21 -14 10 6 -15 -40 -26 -48 -5 -3 -8 -9 -8 -13 3 -24 -1 -36 -9 -31 -8 5 -7
11 1 21 10 12 8 13 -7 8 -16 -6 -17 -5 -6 7 15 16 16 29 1 29 -5 0 -8 -4 -4
-9 3 -5 -5 -17 -17 -25 -12 -9 -19 -16 -14 -16 5 0 3 -7 -4 -15 -7 -8 -9 -15
-4 -15 4 0 3 -5 -4 -12 -23 -23 -12 -32 11 -10 13 12 27 19 32 15 4 -5 5 -3 1
4 -4 7 -14 9 -22 6 -14 -5 -14 -3 -3 15 11 18 15 19 22 6 14 -25 18 -62 7 -69
-5 -3 -7 0 -4 9 5 13 -2 14 -34 7 -2 -1 4 -8 12 -17 16 -15 13 -39 -4 -29 -5
3 -10 -4 -12 -16 -2 -12 -11 -23 -21 -25 -9 -1 -15 2 -11 7 3 5 10 7 15 4 5
-4 9 3 9 14 0 11 5 23 10 26 6 4 8 11 4 17 -3 5 -15 -4 -25 -21 -20 -34 -36
-43 -19 -12 8 16 6 23 -12 35 -12 9 -19 16 -14 16 5 0 3 7 -4 15 -7 8 -9 15
-5 15 4 0 2 7 -5 15 -7 8 -10 15 -7 15 2 0 -6 25 -18 57 -13 31 -21 63 -17 71
3 8 1 13 -4 9 -5 -3 -15 10 -21 30 -8 28 -8 36 3 40 10 4 8 10 -9 23 -13 10
-29 40 -37 70 -8 28 -18 54 -22 57 -5 2 -4 11 2 18 8 9 7 14 -5 18 -8 4 -12
13 -9 22 3 8 1 15 -5 15 -6 0 -11 7 -11 16 0 9 5 12 12 8 7 -5 8 -3 3 6 -6 10
-4 12 9 7 10 -4 15 -3 11 4 -4 5 -16 7 -27 3 -14 -4 -18 -2 -14 5 4 6 2 11 -3
11 -6 0 -11 8 -11 17 0 9 -10 36 -21 61 -12 24 -21 54 -21 68 0 13 -5 24 -11
24 -6 0 -7 3 -4 7 4 3 2 12 -4 19 -13 15 -4 34 16 34 8 0 16 4 20 9 3 6 -6 6
-25 1 -16 -5 -30 -5 -30 -1 0 14 28 33 39 27 5 -4 13 -2 16 4 4 6 1 9 -7 8 -7
-2 -12 4 -11 12 2 9 -4 6 -13 -7 -19 -26 -36 -31 -28 -8 4 8 1 15 -6 15 -6 0
-9 4 -5 10 3 5 12 7 20 3 8 -3 15 0 15 5 0 6 -9 9 -19 7 -23 -4 -43 32 -42 78
0 9 -4 17 -9 17 -4 0 -11 11 -14 24 -3 13 -9 32 -13 42 -4 12 -3 15 5 10 7 -4
12 -2 12 3 0 6 -8 11 -17 11 -15 0 -14 2 3 14 18 14 18 14 0 13 -15 -2 -24 12
-40 58 l-22 60 -71 3 -70 3 1 -35z m1066 -56 c0 -5 -5 -10 -11 -10 -5 0 -7 5
-4 10 3 6 8 10 11 10 2 0 4 -4 4 -10z m130 -144 c0 -3 -4 -8 -10 -11 -5 -3
-10 -1 -10 4 0 6 5 11 10 11 6 0 10 -2 10 -4z m-26 -21 c3 -8 1 -15 -4 -15 -6
0 -10 7 -10 15 0 8 2 15 4 15 2 0 6 -7 10 -15z m-1 -98 c4 3 7 1 7 -6 0 -7 4
-10 9 -7 5 3 14 0 20 -7 8 -10 7 -14 -2 -15 -6 0 -21 -2 -32 -4 -12 -2 -20 3
-20 12 0 8 -5 22 -10 30 -7 12 -6 13 7 3 8 -7 18 -10 21 -6z m147 -207 c0 -5
-7 -10 -16 -10 -8 0 -12 5 -9 10 3 6 10 10 16 10 5 0 9 -4 9 -10z m-855 -360
c3 -5 1 -10 -4 -10 -6 0 -11 5 -11 10 0 6 2 10 4 10 3 0 8 -4 11 -10z m1280
-340 c3 -5 2 -10 -4 -10 -5 0 -13 5 -16 10 -3 6 -2 10 4 10 5 0 13 -4 16 -10z
m35 6 c0 -3 -4 -8 -10 -11 -5 -3 -10 -1 -10 4 0 6 5 11 10 11 6 0 10 -2 10 -4z
m-1330 -46 c0 -5 -2 -10 -4 -10 -3 0 -8 5 -11 10 -3 6 -1 10 4 10 6 0 11 -4
11 -10z m165 -10 c3 -6 -1 -7 -9 -4 -18 7 -21 14 -7 14 6 0 13 -4 16 -10z
m1145 6 c0 -2 -7 -9 -15 -16 -13 -11 -14 -10 -9 4 5 14 24 23 24 12z m-110
-186 c0 -5 -2 -10 -4 -10 -3 0 -8 5 -11 10 -3 6 -1 10 4 10 6 0 11 -4 11 -10z"/>
<path d="M1055 1909 c-4 -6 -5 -12 -2 -15 2 -3 7 2 10 11 7 17 1 20 -8 4z"/>
<path d="M2173 1895 c0 -8 4 -12 9 -9 5 3 6 10 3 15 -9 13 -12 11 -12 -6z"/>
<path d="M204 1878 l-19 -23 23 19 c21 18 27 26 19 26 -2 0 -12 -10 -23 -22z"/>
<path d="M1310 1861 c0 -6 4 -13 10 -16 6 -3 7 1 4 9 -7 18 -14 21 -14 7z"/>
<path d="M2133 1855 c0 -8 4 -12 9 -9 5 3 6 10 3 15 -9 13 -12 11 -12 -6z"/>
<path d="M1019 1833 c-13 -16 -12 -17 4 -4 9 7 17 15 17 17 0 8 -8 3 -21 -13z"/>
<path d="M1346 1838 c3 -5 10 -6 15 -3 13 9 11 12 -6 12 -8 0 -12 -4 -9 -9z"/>
<path d="M1385 1840 c-3 -6 1 -7 9 -4 18 7 21 14 7 14 -6 0 -13 -4 -16 -10z"/>
<path d="M2166 1837 c3 -10 9 -15 12 -12 3 3 0 11 -7 18 -10 9 -11 8 -5 -6z"/>
<path d="M2120 1820 c-9 -6 -10 -10 -3 -10 6 0 15 5 18 10 8 12 4 12 -15 0z"/>
<path d="M2140 1795 c-11 -13 -10 -14 4 -9 9 3 16 10 16 15 0 13 -6 11 -20 -6z"/>
<path d="M999 1772 c-13 -16 -13 -16 5 -2 18 14 19 13 12 -13 -4 -19 -3 -26 4
-22 12 8 13 42 1 49 -5 3 -15 -2 -22 -12z"/>
<path d="M273 1758 c1 -7 -4 -12 -11 -10 -8 1 -11 -2 -7 -8 5 -8 11 -7 21 1
16 13 18 29 4 29 -5 0 -9 -6 -7 -12z"/>
<path d="M2115 1750 c-17 -18 -17 -20 -2 -14 9 3 17 10 17 16 0 5 5 6 12 2 7
-4 8 -3 4 4 -9 16 -10 15 -31 -8z"/>
<path d="M1415 1741 c-3 -5 -2 -12 3 -15 5 -3 9 1 9 9 0 17 -3 19 -12 6z"/>
<path d="M35 1730 c-3 -6 1 -7 9 -4 18 7 21 14 7 14 -6 0 -13 -4 -16 -10z"/>
<path d="M997 1719 c7 -7 15 -10 18 -7 3 3 -2 9 -12 12 -14 6 -15 5 -6 -5z"/>
<path d="M26 1698 c3 -5 10 -6 15 -3 13 9 11 12 -6 12 -8 0 -12 -4 -9 -9z"/>
<path d="M59 1703 c0 -5 -2 -15 -4 -24 -2 -13 2 -15 19 -11 18 5 19 7 3 10
-14 3 -16 7 -6 18 8 10 8 14 0 14 -6 0 -11 -3 -12 -7z"/>
<path d="M264 1682 c-2 -23 -2 -23 13 -3 8 12 20 18 26 15 7 -4 9 -3 4 1 -17
19 -42 11 -43 -13z"/>
<path d="M950 1700 c0 -4 7 -7 15 -6 23 3 26 12 5 13 -11 1 -20 -2 -20 -7z"/>
<path d="M2097 1686 c4 -22 3 -27 -7 -21 -9 6 -11 4 -5 -4 14 -24 30 5 17 31
-11 21 -11 21 -5 -6z"/>
<path d="M2118 1703 c7 -3 16 -2 19 1 4 3 -2 6 -13 5 -11 0 -14 -3 -6 -6z"/>
<path d="M1389 1683 c-13 -16 -12 -17 4 -4 9 7 17 15 17 17 0 8 -8 3 -21 -13z"/>
<path d="M307 1659 c7 -7 15 -10 18 -7 3 3 -2 9 -12 12 -14 6 -15 5 -6 -5z"/>
<path d="M2055 1660 c-3 -5 -1 -10 4 -10 6 0 11 5 11 10 0 6 -2 10 -4 10 -3 0
-8 -4 -11 -10z"/>
<path d="M2330 1660 c0 -5 5 -10 11 -10 5 0 7 5 4 10 -3 6 -8 10 -11 10 -2 0
-4 -4 -4 -10z"/>
<path d="M1195 1649 c-11 -17 1 -21 15 -4 8 9 8 15 2 15 -6 0 -14 -5 -17 -11z"/>
<path d="M1395 1648 c25 -15 68 -23 45 -9 -8 5 -17 8 -21 5 -4 -2 -10 0 -14 6
-3 5 -12 10 -18 10 -7 0 -3 -6 8 -12z"/>
<path d="M65 1640 c3 -5 11 -10 16 -10 6 0 7 5 4 10 -3 6 -11 10 -16 10 -6 0
-7 -4 -4 -10z"/>
<path d="M265 1640 c-3 -5 -2 -10 4 -10 5 0 13 5 16 10 3 6 2 10 -4 10 -5 0
-13 -4 -16 -10z"/>
<path d="M36 1622 c-3 -5 1 -9 9 -9 8 0 12 4 9 9 -3 4 -7 8 -9 8 -2 0 -6 -4
-9 -8z"/>
<path d="M2270 1626 c0 -2 7 -7 16 -10 8 -3 12 -2 9 4 -6 10 -25 14 -25 6z"/>
<path d="M2075 1609 c-11 -16 -1 -19 13 -3 7 8 8 14 3 14 -5 0 -13 -5 -16 -11z"/>
<path d="M1440 1595 c-7 -8 -9 -15 -4 -15 5 0 2 -5 -6 -11 -13 -9 -13 -10 0
-6 8 2 15 10 15 18 1 8 7 13 14 11 7 -1 10 2 6 8 -8 13 -10 13 -25 -5z"/>
<path d="M2039 1532 c-13 -16 -13 -16 5 -2 18 14 19 13 12 -13 -4 -19 -3 -26
4 -22 12 8 13 42 1 49 -5 3 -15 -2 -22 -12z"/>
<path d="M1473 1527 c0 -8 6 -14 14 -14 9 0 10 4 2 14 -6 7 -12 13 -14 13 -1
0 -2 -6 -2 -13z"/>
<path d="M118 1523 c7 -3 16 -2 19 1 4 3 -2 6 -13 5 -11 0 -14 -3 -6 -6z"/>
<path d="M1126 1514 c16 -13 16 -15 2 -10 -24 7 -31 -9 -11 -25 9 -8 14 -9 10
-3 -4 7 0 14 8 18 19 7 8 36 -13 36 -13 0 -12 -3 4 -16z"/>
<path d="M2273 1513 c0 -9 4 -10 14 -2 7 6 13 12 13 14 0 1 -6 2 -13 2 -8 0
-14 -6 -14 -14z"/>
<path d="M375 1509 c-4 -6 -5 -12 -2 -15 2 -3 7 2 10 11 7 17 1 20 -8 4z"/>
<path d="M1190 1510 c0 -5 7 -10 15 -10 8 0 12 -6 9 -14 -3 -8 -1 -16 4 -20 5
-3 8 4 7 16 -1 21 -35 48 -35 28z"/>
<path d="M1240 1510 c8 -5 20 -10 25 -10 6 0 3 5 -5 10 -8 5 -19 10 -25 10 -5
0 -3 -5 5 -10z"/>
<path d="M118 1491 c23 -20 30 -37 10 -25 -7 4 -8 3 -4 -5 8 -12 26 -6 26 8 0
5 -12 16 -27 25 l-28 17 23 -20z"/>
<path d="M895 1475 c0 -13 3 -21 8 -18 4 2 7 10 7 18 0 8 -3 16 -7 18 -5 3 -8
-5 -8 -18z"/>
<path d="M2235 1490 c-3 -6 1 -7 9 -4 18 7 21 14 7 14 -6 0 -13 -4 -16 -10z"/>
<path d="M330 1480 c0 -5 5 -10 10 -10 6 0 10 5 10 10 0 6 -4 10 -10 10 -5 0
-10 -4 -10 -10z"/>
<path d="M1240 1480 c0 -5 5 -10 10 -10 6 0 10 5 10 10 0 6 -4 10 -10 10 -5 0
-10 -4 -10 -10z"/>
<path d="M2030 1476 c0 -8 4 -17 9 -20 5 -4 7 3 4 14 -6 23 -13 26 -13 6z"/>
<path d="M1475 1471 c-3 -5 -2 -12 3 -15 5 -3 9 1 9 9 0 17 -3 19 -12 6z"/>
<path d="M95 1460 c3 -5 8 -10 11 -10 2 0 4 5 4 10 0 6 -5 10 -11 10 -5 0 -7
-4 -4 -10z"/>
<path d="M1133 1458 c-2 -5 1 -7 9 -6 7 2 12 -2 11 -8 -1 -6 5 -11 12 -11 11
0 12 4 4 13 -7 8 -6 14 3 17 7 3 3 4 -10 4 -13 -1 -26 -5 -29 -9z"/>
<path d="M1266 1454 c-3 -8 -11 -12 -17 -8 -8 4 -9 3 -5 -4 5 -9 12 -8 26 1
21 12 26 27 11 27 -5 0 -12 -7 -15 -16z"/>
<path d="M2220 1466 c0 -2 7 -7 16 -10 8 -3 12 -2 9 4 -6 10 -25 14 -25 6z"/>
<path d="M153 1430 c1 -11 5 -20 9 -20 3 0 6 9 5 20 -1 11 -5 20 -9 20 -3 0
-6 -9 -5 -20z"/>
<path d="M376 1433 c-6 -14 -5 -15 5 -6 7 7 10 15 7 18 -3 3 -9 -2 -12 -12z"/>
<path d="M1092 1438 c-13 -6 -21 -17 -18 -24 3 -7 1 -15 -5 -18 -5 -2 -4 -3 3
-2 7 2 13 8 13 14 0 6 9 18 20 26 23 18 19 19 -13 4z"/>
<path d="M1995 1440 c-2 -3 5 -7 16 -7 10 -1 19 2 19 6 0 9 -29 10 -35 1z"/>
<path d="M2205 1440 c-3 -6 1 -7 9 -4 18 7 21 14 7 14 -6 0 -13 -4 -16 -10z"/>
<path d="M1513 1425 c0 -8 4 -12 9 -9 5 3 6 10 3 15 -9 13 -12 11 -12 -6z"/>
<path d="M346 1413 c-4 -9 -4 -14 0 -10 4 4 14 1 23 -6 14 -11 15 -10 1 8 -8
11 -15 21 -16 23 -1 2 -5 -5 -8 -15z"/>
<path d="M1270 1420 c0 -5 5 -10 10 -10 6 0 10 5 10 10 0 6 -4 10 -10 10 -5 0
-10 -4 -10 -10z"/>
<path d="M2215 1419 c-4 -6 -4 -13 -1 -16 3 -4 6 -1 6 6 0 7 5 9 12 5 7 -4 8
-3 4 4 -9 15 -13 15 -21 1z"/>
<path d="M878 1413 c7 -3 16 -2 19 1 4 3 -2 6 -13 5 -11 0 -14 -3 -6 -6z"/>
<path d="M1985 1399 c-4 -6 -5 -12 -2 -15 2 -3 7 2 10 11 7 17 1 20 -8 4z"/>
<path d="M2191 1393 c-1 -17 16 -25 25 -12 4 7 3 9 -4 5 -5 -3 -13 0 -15 6 -4
9 -6 10 -6 1z"/>
<path d="M350 1380 c0 -6 7 -10 15 -10 8 0 15 2 15 4 0 2 -7 6 -15 10 -8 3
-15 1 -15 -4z"/>
<path d="M867 1374 c6 -15 23 -19 23 -5 0 5 -7 11 -14 14 -10 4 -13 1 -9 -9z"/>
<path d="M1481 1383 c-1 -6 4 -15 10 -18 6 -4 8 -14 5 -22 -3 -8 -2 -11 3 -8
6 3 9 14 8 25 -1 10 -4 17 -8 14 -4 -2 -10 2 -12 8 -4 9 -6 10 -6 1z"/>
<path d="M837 1373 c-10 -9 -9 -23 1 -23 5 0 9 7 9 15 0 17 -1 18 -10 8z"/>
<path d="M1156 1367 c3 -10 9 -15 12 -12 3 3 0 11 -7 18 -10 9 -11 8 -5 -6z"/>
<path d="M116 1358 c3 -5 10 -6 15 -3 13 9 11 12 -6 12 -8 0 -12 -4 -9 -9z"/>
<path d="M160 1360 c-12 -7 -10 -9 7 -7 12 0 19 5 17 9 -6 10 -6 10 -24 -2z"/>
<path d="M1966 1358 c3 -5 10 -6 15 -3 13 9 11 12 -6 12 -8 0 -12 -4 -9 -9z"/>
<path d="M2175 1360 c-3 -5 -1 -10 4 -10 6 0 11 5 11 10 0 6 -2 10 -4 10 -3 0
-8 -4 -11 -10z"/>
<path d="M1060 1356 c0 -2 7 -7 16 -10 8 -3 12 -2 9 4 -6 10 -25 14 -25 6z"/>
<path d="M1546 1342 c-3 -5 1 -9 9 -9 8 0 12 4 9 9 -3 4 -7 8 -9 8 -2 0 -6 -4
-9 -8z"/>
<path d="M1990 1339 c0 -5 5 -7 10 -4 6 3 10 8 10 11 0 2 -4 4 -10 4 -5 0 -10
-5 -10 -11z"/>
<path d="M155 1330 c-3 -6 1 -7 9 -4 18 7 21 14 7 14 -6 0 -13 -4 -16 -10z"/>
<path d="M2192 1320 c0 -14 2 -19 5 -12 2 6 2 18 0 25 -3 6 -5 1 -5 -13z"/>
<path d="M393 1317 c-3 -5 0 -14 6 -20 9 -9 10 -7 5 7 -5 13 -4 17 4 12 6 -3
13 -3 16 2 3 5 -2 9 -10 9 -8 0 -17 -4 -21 -10z"/>
<path d="M1052 1321 c-11 -7 -10 -9 3 -14 9 -4 14 -3 10 2 -3 5 1 12 7 14 7 3
9 6 3 6 -5 0 -16 -3 -23 -8z"/>
<path d="M1515 1320 c3 -5 8 -10 11 -10 2 0 4 5 4 10 0 6 -5 10 -11 10 -5 0
-7 -4 -4 -10z"/>
<path d="M1935 1320 c3 -5 8 -10 11 -10 2 0 4 5 4 10 0 6 -5 10 -11 10 -5 0
-7 -4 -4 -10z"/>
<path d="M829 1303 c-13 -17 -13 -17 6 -3 11 8 22 16 24 17 2 2 0 3 -6 3 -6 0
-17 -8 -24 -17z"/>
<path d="M155 1301 c-3 -5 -2 -12 3 -15 5 -3 9 1 9 9 0 17 -3 19 -12 6z"/>
<path d="M202 1280 c7 -10 14 -18 15 -16 6 6 -9 36 -18 36 -5 0 -4 -9 3 -20z"/>
<path d="M1525 1290 c-16 -7 -17 -9 -3 -9 9 -1 20 4 23 9 7 11 7 11 -20 0z"/>
<path d="M1934 1289 c-3 -6 -2 -15 3 -20 5 -5 9 -1 9 11 0 23 -2 24 -12 9z"/>
<path d="M1966 1284 c-4 -9 -4 -19 -1 -22 3 -3 5 0 5 7 0 7 4 9 10 6 6 -3 7 1
4 9 -8 20 -10 20 -18 0z"/>
<path d="M1028 1283 c7 -3 16 -2 19 1 4 3 -2 6 -13 5 -11 0 -14 -3 -6 -6z"/>
<path d="M838 1273 c7 -3 16 -2 19 1 4 3 -2 6 -13 5 -11 0 -14 -3 -6 -6z"/>
<path d="M1538 1258 c5 -5 16 -8 23 -6 8 3 3 7 -10 11 -17 4 -21 3 -13 -5z"/>
<path d="M2146 1261 c-4 -5 3 -7 14 -4 23 6 26 13 6 13 -8 0 -17 -4 -20 -9z"/>
<path d="M817 1251 c6 -7 9 -20 6 -27 -3 -8 -3 -14 0 -14 14 0 14 30 -1 41
-14 11 -15 11 -5 0z"/>
<path d="M217 1239 c7 -7 15 -10 18 -7 3 3 -2 9 -12 12 -14 6 -15 5 -6 -5z"/>
<path d="M1330 1241 c0 -6 4 -12 8 -15 5 -3 9 1 9 9 0 8 -4 15 -9 15 -4 0 -8
-4 -8 -9z"/>
<path d="M1930 1240 c0 -5 5 -10 10 -10 6 0 10 5 10 10 0 6 -4 10 -10 10 -5 0
-10 -4 -10 -10z"/>
<path d="M793 1225 c0 -8 4 -15 9 -15 4 0 8 4 8 9 0 6 -4 12 -8 15 -5 3 -9 -1
-9 -9z"/>
<path d="M1010 1220 c6 -11 13 -20 16 -20 2 0 0 9 -6 20 -6 11 -13 20 -16 20
-2 0 0 -9 6 -20z"/>
<path d="M2136 1218 c3 -5 10 -6 15 -3 13 9 11 12 -6 12 -8 0 -12 -4 -9 -9z"/>
<path d="M2190 1226 c0 -2 7 -7 16 -10 8 -3 12 -2 9 4 -6 10 -25 14 -25 6z"/>
<path d="M1555 1200 c-3 -5 -1 -10 4 -10 6 0 11 5 11 10 0 6 -2 10 -4 10 -3 0
-8 -4 -11 -10z"/>
<path d="M215 1189 c-4 -6 -5 -12 -2 -15 2 -3 7 2 10 11 7 17 1 20 -8 4z"/>
<path d="M813 1174 c-3 -8 -12 -13 -20 -10 -8 3 -11 1 -8 -4 10 -16 23 -12 35
10 6 11 8 20 5 20 -3 0 -8 -7 -12 -16z"/>
<path d="M983 1175 c-3 -9 -3 -19 1 -22 3 -4 6 1 6 11 0 9 5 14 10 11 6 -3 10
-1 10 4 0 17 -20 13 -27 -4z"/>
<path d="M2113 1184 c4 -4 1 -14 -6 -23 -11 -14 -10 -15 8 -1 11 8 21 15 23
16 2 1 -5 5 -15 8 -9 4 -14 4 -10 0z"/>
<path d="M235 1170 c3 -5 8 -10 11 -10 2 0 4 5 4 10 0 6 -5 10 -11 10 -5 0 -7
-4 -4 -10z"/>
<path d="M435 1169 c-4 -6 -5 -12 -2 -15 2 -3 7 2 10 11 7 17 1 20 -8 4z"/>
<path d="M1330 1159 c0 -5 5 -7 10 -4 6 3 10 8 10 11 0 2 -4 4 -10 4 -5 0 -10
-5 -10 -11z"/>
<path d="M1584 1149 c0 -16 2 -17 16 -4 9 8 20 13 23 10 4 -3 5 -2 2 2 -12 15
-41 9 -41 -8z"/>
<path d="M1876 1153 c-6 -14 -5 -15 5 -6 7 7 10 15 7 18 -3 3 -9 -2 -12 -12z"/>
<path d="M1910 1159 c0 -4 6 -9 13 -12 8 -3 14 0 14 7 0 7 -6 13 -14 13 -7 0
-13 -4 -13 -8z"/>
<path d="M441 1124 c0 -11 3 -14 6 -6 3 7 2 16 -1 19 -3 4 -6 -2 -5 -13z"/>
<path d="M780 1131 c0 -6 4 -13 10 -16 6 -3 7 1 4 9 -7 18 -14 21 -14 7z"/>
<path d="M2107 1127 c-3 -8 0 -14 7 -14 7 0 13 6 13 14 0 7 -4 13 -8 13 -4 0
-9 -6 -12 -13z"/>
<path d="M2155 1131 c-3 -5 -2 -12 3 -15 5 -3 9 1 9 9 0 17 -3 19 -12 6z"/>
<path d="M268 1112 c9 -10 19 -17 21 -16 6 5 -20 34 -30 34 -5 0 -1 -8 9 -18z"/>
<path d="M999 1113 c-13 -16 -12 -17 4 -4 9 7 17 15 17 17 0 8 -8 3 -21 -13z"/>
<path d="M1380 1120 c8 -5 20 -10 25 -10 6 0 3 5 -5 10 -8 5 -19 10 -25 10 -5
0 -3 -5 5 -10z"/>
<path d="M234 1088 c-19 -23 -19 -23 2 -5 11 9 24 14 29 10 4 -5 5 -2 1 5 -9
16 -10 16 -32 -10z"/>
<path d="M460 1100 c-8 -5 -10 -10 -5 -10 6 0 17 5 25 10 8 5 11 10 5 10 -5 0
-17 -5 -25 -10z"/>
<path d="M735 1100 c-3 -5 -1 -10 4 -10 6 0 11 5 11 10 0 6 -2 10 -4 10 -3 0
-8 -4 -11 -10z"/>
<path d="M764 1099 c-4 -7 -3 -9 4 -5 6 3 13 -2 15 -11 4 -16 5 -16 6 -1 1 21
-15 32 -25 17z"/>
<path d="M1410 1091 c0 -6 4 -13 10 -16 6 -3 7 1 4 9 -7 18 -14 21 -14 7z"/>
<path d="M1592 1081 c-11 -7 -10 -9 3 -14 9 -4 14 -3 10 2 -3 5 1 12 7 14 7 3
9 6 3 6 -5 0 -16 -3 -23 -8z"/>
<path d="M290 1069 c0 -5 -6 -7 -12 -3 -7 4 -10 4 -6 -1 4 -4 2 -15 -4 -24
-10 -12 -7 -12 8 2 11 9 24 14 28 10 4 -4 4 0 0 10 -7 19 -14 22 -14 6z"/>
<path d="M475 1060 c-13 -6 -15 -9 -5 -9 8 0 22 4 30 9 18 12 2 12 -25 0z"/>
<path d="M1890 1060 c0 -5 5 -10 11 -10 5 0 7 5 4 10 -3 6 -8 10 -11 10 -2 0
-4 -4 -4 -10z"/>
<path d="M495 1039 c-3 -4 2 -6 10 -5 21 3 28 13 10 13 -9 0 -18 -4 -20 -8z"/>
<path d="M730 1040 c0 -5 5 -10 11 -10 5 0 7 5 4 10 -3 6 -8 10 -11 10 -2 0
-4 -4 -4 -10z"/>
<path d="M1405 1040 c3 -5 8 -10 11 -10 2 0 4 5 4 10 0 6 -5 10 -11 10 -5 0
-7 -4 -4 -10z"/>
<path d="M1816 1042 c-2 -4 -1 -14 4 -22 7 -11 9 -9 7 8 -1 24 -3 26 -11 14z"/>
<path d="M1870 1030 c-8 -5 -10 -10 -5 -10 6 0 17 5 25 10 8 5 11 10 5 10 -5
0 -17 -5 -25 -10z"/>
<path d="M930 1021 c0 -6 4 -13 10 -16 6 -3 7 1 4 9 -7 18 -14 21 -14 7z"/>
<path d="M265 1000 c-3 -6 1 -7 9 -4 18 7 21 14 7 14 -6 0 -13 -4 -16 -10z"/>
<path d="M1713 995 c0 -8 4 -12 9 -9 5 3 6 10 3 15 -9 13 -12 11 -12 -6z"/>
<path d="M1787 999 c7 -7 15 -10 18 -7 3 3 -2 9 -12 12 -14 6 -15 5 -6 -5z"/>
<path d="M1871 994 c0 -11 3 -14 6 -6 3 7 2 16 -1 19 -3 4 -6 -2 -5 -13z"/>
<path d="M2051 1007 c2 -1 13 -9 24 -17 19 -14 19 -14 6 3 -7 9 -18 17 -24 17
-6 0 -8 -1 -6 -3z"/>
<path d="M480 999 c0 -3 11 -20 25 -39 14 -19 25 -30 25 -24 -1 10 -50 73 -50
63z"/>
<path d="M1433 985 c0 -8 4 -15 9 -15 4 0 8 4 8 9 0 6 -4 12 -8 15 -5 3 -9 -1
-9 -9z"/>
<path d="M1835 990 c-3 -5 -1 -10 4 -10 6 0 11 5 11 10 0 6 -2 10 -4 10 -3 0
-8 -4 -11 -10z"/>
<path d="M286 982 c-3 -5 1 -9 9 -9 8 0 12 4 9 9 -3 4 -7 8 -9 8 -2 0 -6 -4
-9 -8z"/>
<path d="M950 978 c0 -4 4 -8 9 -8 6 0 12 4 15 8 3 5 -1 9 -9 9 -8 0 -15 -4
-15 -9z"/>
<path d="M1626 973 c-6 -14 -5 -15 5 -6 7 7 10 15 7 18 -3 3 -9 -2 -12 -12z"/>
<path d="M262 964 c10 -10 20 -16 22 -13 3 3 -5 11 -17 18 -21 13 -21 12 -5
-5z"/>
<path d="M732 975 c4 -4 0 -13 -9 -20 -13 -10 -14 -13 -2 -20 8 -5 11 -5 7 0
-4 4 0 13 9 20 13 10 14 13 2 20 -8 5 -11 5 -7 0z"/>
<path d="M926 963 c-6 -14 -5 -15 5 -6 7 7 10 15 7 18 -3 3 -9 -2 -12 -12z"/>
<path d="M1646 965 c-9 -26 -7 -32 5 -12 6 10 9 21 6 23 -2 3 -7 -2 -11 -11z"/>
<path d="M1674 956 c1 -8 5 -18 8 -22 4 -3 5 1 4 10 -1 8 -5 18 -8 22 -4 3 -5
-1 -4 -10z"/>
<path d="M2090 960 c0 -5 5 -10 11 -10 5 0 7 5 4 10 -3 6 -8 10 -11 10 -2 0
-4 -4 -4 -10z"/>
<path d="M315 949 c-4 -6 -4 -13 -1 -16 3 -4 6 -1 6 6 0 7 5 9 12 5 7 -4 8 -3
4 4 -9 15 -13 15 -21 1z"/>
<path d="M673 933 c0 -9 4 -10 14 -2 7 6 13 12 13 14 0 1 -6 2 -13 2 -8 0 -14
-6 -14 -14z"/>
<path d="M1773 935 c0 -8 4 -12 9 -9 5 3 6 10 3 15 -9 13 -12 11 -12 -6z"/>
<path d="M1810 945 c0 -7 30 -13 34 -7 3 4 -4 9 -15 9 -10 1 -19 0 -19 -2z"/>
<path d="M1856 935 c-9 -26 -7 -32 5 -12 6 10 9 21 6 23 -2 3 -7 -2 -11 -11z"/>
<path d="M906 925 c-11 -8 -16 -15 -10 -15 5 0 18 7 28 15 11 8 16 15 10 15
-5 0 -18 -7 -28 -15z"/>
<path d="M326 922 c-3 -5 1 -9 9 -9 8 0 15 4 15 9 0 4 -4 8 -9 8 -6 0 -12 -4
-15 -8z"/>
<path d="M534 919 c-3 -6 -2 -15 4 -21 6 -6 12 -6 17 3 6 8 4 10 -5 4 -10 -6
-12 -4 -7 8 7 19 2 23 -9 6z"/>
<path d="M1811 914 c0 -11 3 -14 6 -6 3 7 2 16 -1 19 -3 4 -6 -2 -5 -13z"/>
<path d="M1435 911 c-3 -5 -2 -12 3 -15 5 -3 9 1 9 9 0 17 -3 19 -12 6z"/>
<path d="M295 900 c3 -5 8 -10 11 -10 2 0 4 5 4 10 0 6 -5 10 -11 10 -5 0 -7
-4 -4 -10z"/>
<path d="M633 903 c4 -3 1 -13 -6 -22 -11 -14 -10 -14 5 -2 16 12 16 31 1 31
-4 0 -3 -3 0 -7z"/>
<path d="M913 895 c-3 -9 -3 -18 -1 -21 3 -3 8 4 11 16 6 23 -1 27 -10 5z"/>
<path d="M1470 900 c-13 -8 -12 -10 3 -10 9 0 17 5 17 10 0 12 -1 12 -20 0z"/>
<path d="M1830 900 c0 -5 5 -10 11 -10 5 0 7 5 4 10 -3 6 -8 10 -11 10 -2 0
-4 -4 -4 -10z"/>
<path d="M351 884 c0 -11 3 -14 6 -6 3 7 2 16 -1 19 -3 4 -6 -2 -5 -13z"/>
<path d="M1775 890 c-4 -6 -11 -8 -16 -5 -5 3 -6 -1 -3 -10 4 -9 7 -15 8 -13
1 2 8 11 15 21 7 9 11 17 8 17 -3 0 -9 -5 -12 -10z"/>
<path d="M2016 885 c-3 -8 -1 -15 4 -15 6 0 10 7 10 15 0 8 -2 15 -4 15 -2 0
-6 -7 -10 -15z"/>
<path d="M2056 887 c3 -10 9 -15 12 -12 3 3 0 11 -7 18 -10 9 -11 8 -5 -6z"/>
<path d="M557 883 c-4 -3 -7 -11 -7 -17 0 -6 5 -5 12 2 6 6 9 14 7 17 -3 3 -9
2 -12 -2z"/>
<path d="M660 881 c0 -4 9 -12 20 -19 12 -7 20 -8 20 -2 0 5 -5 10 -11 10 -5
0 -8 4 -5 8 3 5 -1 9 -9 9 -8 0 -15 -3 -15 -6z"/>
<path d="M1698 872 c4 -11 1 -13 -8 -7 -8 5 -11 4 -6 -3 3 -6 2 -14 -4 -17 -8
-5 -8 -11 -1 -19 6 -7 13 -23 15 -37 3 -13 5 -25 7 -26 1 -3 5 -15 8 -29 0 -4
8 -1 16 6 9 7 18 10 22 6 3 -3 13 0 22 8 9 8 19 15 24 15 4 1 7 4 8 9 0 4 5
12 10 19 7 7 6 14 -2 18 -12 8 -31 -14 -23 -26 2 -4 0 -10 -6 -14 -5 -3 -10
-1 -10 4 0 6 -7 11 -15 11 -8 0 -15 5 -15 10 0 6 8 10 18 8 11 -2 17 3 15 15
-1 12 4 17 14 13 8 -3 11 -2 8 3 -8 13 -46 10 -70 -6 -35 -23 -42 -11 -18 33
10 16 9 21 -2 21 -7 0 -11 -7 -7 -15z m71 -53 c4 -12 2 -12 -12 0 -10 7 -18
10 -18 5 -6 -40 -5 -54 5 -52 6 2 11 -1 11 -7 0 -5 -4 -9 -9 -7 -4 1 -15 -3
-23 -9 -8 -7 -13 -8 -12 -3 1 5 0 11 -1 14 -10 27 -6 47 13 62 25 20 38 19 46
-3z"/>
<path d="M1715 781 c-3 -5 -2 -12 3 -15 5 -3 9 1 9 9 0 17 -3 19 -12 6z"/>
<path d="M530 865 c0 -5 5 -17 10 -25 5 -8 10 -10 10 -5 0 6 -5 17 -10 25 -5
8 -10 11 -10 5z"/>
<path d="M576 862 c-2 -4 2 -16 10 -27 8 -10 14 -14 14 -9 0 6 -6 16 -12 23
-11 11 -10 13 5 8 9 -4 17 -2 17 3 0 12 -27 13 -34 2z"/>
<path d="M1716 853 c-6 -14 -5 -15 5 -6 7 7 10 15 7 18 -3 3 -9 -2 -12 -12z"/>
<path d="M2036 862 c-3 -5 1 -9 9 -9 8 0 12 4 9 9 -3 4 -7 8 -9 8 -2 0 -6 -4
-9 -8z"/>
<path d="M337 853 c-10 -9 -9 -23 1 -23 5 0 9 7 9 15 0 17 -1 18 -10 8z"/>
<path d="M623 847 c4 -10 2 -17 -5 -17 -6 0 -9 -3 -5 -6 3 -3 12 -2 20 3 13 7
13 10 -1 23 -14 13 -15 12 -9 -3z"/>
<path d="M915 851 c-3 -5 -2 -12 3 -15 5 -3 9 1 9 9 0 17 -3 19 -12 6z"/>
<path d="M1995 850 c-3 -6 1 -7 9 -4 18 7 21 14 7 14 -6 0 -13 -4 -16 -10z"/>
<path d="M290 839 c0 -5 5 -7 10 -4 6 3 10 8 10 11 0 2 -4 4 -10 4 -5 0 -10
-5 -10 -11z"/>
<path d="M567 824 c4 -11 3 -15 -4 -11 -10 6 -11 -12 -3 -33 1 -3 2 -9 1 -13
-1 -4 6 -10 14 -13 8 -3 13 -10 10 -14 -3 -4 2 -13 10 -20 10 -9 15 -9 15 -1
0 6 -5 11 -11 11 -8 0 -7 5 1 16 21 24 22 64 2 64 -15 0 -15 -2 -2 -11 12 -8
11 -9 -5 -7 -12 2 -19 10 -17 20 1 9 -2 19 -8 23 -6 4 -7 -1 -3 -11z m38 -64
c-3 -5 -13 -6 -21 -3 -12 4 -13 8 -3 14 15 9 32 2 24 -11z"/>
<path d="M1479 828 c-5 -15 -4 -50 1 -53 3 -2 6 9 6 26 0 24 -3 37 -7 27z"/>
<path d="M890 811 c0 -6 -9 -8 -20 -6 -11 2 -18 0 -15 -5 7 -12 38 -6 43 8 2
7 1 12 -2 12 -3 0 -6 -4 -6 -9z"/>
<path d="M1992 791 c-11 -7 -11 -9 0 -14 9 -3 15 1 15 9 0 8 -1 14 -1 14 -1 0
-7 -4 -14 -9z"/>
<path d="M335 780 c-2 -3 5 -7 16 -7 10 -1 19 2 19 6 0 9 -29 10 -35 1z"/>
<path d="M864 769 c1 -7 10 -13 19 -15 9 -1 15 2 11 7 -3 5 -9 7 -14 4 -4 -3
-11 0 -13 5 -3 6 -4 5 -3 -1z"/>
<path d="M1510 773 c5 -2 8 -9 4 -14 -3 -5 0 -9 6 -9 15 0 7 23 -8 26 -7 1 -8
0 -2 -3z"/>
<path d="M386 762 c-3 -5 1 -9 9 -9 8 0 12 4 9 9 -3 4 -7 8 -9 8 -2 0 -6 -4
-9 -8z"/>
<path d="M830 746 c0 -2 7 -7 16 -10 8 -3 12 -2 9 4 -6 10 -25 14 -25 6z"/>
<path d="M381 724 c0 -11 3 -14 6 -6 3 7 2 16 -1 19 -3 4 -6 -2 -5 -13z"/>
<path d="M410 721 c0 -11 4 -22 9 -25 4 -3 6 6 3 19 -5 30 -12 33 -12 6z"/>
<path d="M1495 700 c3 -5 8 -10 11 -10 2 0 4 5 4 10 0 6 -5 10 -11 10 -5 0 -7
-4 -4 -10z"/>
<path d="M1946 698 c3 -4 11 -5 19 -1 21 7 19 12 -4 10 -11 0 -18 -5 -15 -9z"/>
<path d="M1552 685 c4 -4 3 -14 -4 -22 -8 -11 -7 -12 6 -7 19 7 21 20 4 30 -7
4 -10 4 -6 -1z"/>
<path d="M420 672 c0 -6 -11 -9 -27 -6 -15 3 -25 3 -22 -1 12 -11 49 -14 55
-4 3 6 3 13 0 16 -3 4 -6 1 -6 -5z"/>
<path d="M830 660 c0 -5 5 -10 11 -10 5 0 7 5 4 10 -3 6 -8 10 -11 10 -2 0 -4
-4 -4 -10z"/>
<path d="M1560 640 c-9 -6 -10 -10 -3 -10 6 0 15 5 18 10 8 12 4 12 -15 0z"/>
<path d="M1940 638 c0 -4 7 -8 15 -8 8 0 15 4 15 8 0 5 -7 9 -15 9 -8 0 -15
-4 -15 -9z"/>
<path d="M1990 639 c0 -5 5 -7 10 -4 6 3 10 8 10 11 0 2 -4 4 -10 4 -5 0 -10
-5 -10 -11z"/>
<path d="M1579 628 c-5 -19 -8 -50 -4 -46 7 7 15 48 9 48 -2 0 -4 -1 -5 -2z"/>
<path d="M1515 611 c-3 -5 -2 -12 3 -15 5 -3 9 1 9 9 0 17 -3 19 -12 6z"/>
<path d="M430 600 c0 -5 5 -10 10 -10 6 0 10 5 10 10 0 6 -4 10 -10 10 -5 0
-10 -4 -10 -10z"/>
<path d="M780 584 c0 -1 8 -8 17 -15 9 -8 14 -9 10 -2 -4 6 -1 13 5 16 7 3 3
4 -9 4 -13 -1 -23 -2 -23 -3z"/>
<path d="M1550 563 c0 -6 8 -17 18 -24 16 -13 16 -13 2 6 -8 11 -16 22 -17 24
-2 2 -3 0 -3 -6z"/>
<path d="M454 543 c2 -10 11 -19 22 -20 16 -2 16 -1 1 3 -9 3 -15 9 -12 14 3
5 1 11 -4 14 -5 4 -8 -2 -7 -11z"/>
<path d="M1913 532 c0 -10 7 -19 14 -19 9 0 10 4 3 12 -5 7 -7 15 -3 18 3 4 1
7 -5 7 -6 0 -10 -8 -9 -18z"/>
<path d="M790 520 c0 -5 5 -10 11 -10 5 0 7 5 4 10 -3 6 -8 10 -11 10 -2 0 -4
-4 -4 -10z"/>
<path d="M1600 511 c0 -7 -5 -9 -12 -5 -7 5 -8 3 -3 -5 5 -9 10 -10 18 -2 6 6
8 14 4 18 -4 3 -7 1 -7 -6z"/>
<path d="M747 487 c-3 -8 0 -14 7 -14 7 0 13 6 13 14 0 7 -4 13 -8 13 -4 0 -9
-6 -12 -13z"/>
<path d="M1597 471 c-10 -14 -10 -14 4 -4 9 7 18 10 21 7 3 -3 8 -1 12 4 9 16
-24 9 -37 -7z"/>
<path d="M1874 482 c3 -5 0 -13 -6 -15 -9 -4 -10 -6 -1 -6 17 -1 25 16 12 25
-7 4 -9 3 -5 -4z"/>
<path d="M493 455 c0 -8 4 -12 9 -9 5 3 6 10 3 15 -9 13 -12 11 -12 -6z"/>
</g>
</svg>
