<?xml version="1.0" encoding="utf-8"?>
<!-- Generator: Adobe Illustrator 25.4.1, SVG Export Plug-In . SVG Version: 6.00 Build 0)  -->
<svg version="1.1" id="Layer_1" xmlns="http://www.w3.org/2000/svg" xmlns:xlink="http://www.w3.org/1999/xlink" x="0px" y="0px"
	 viewBox="0 0 1821.4 414.2" style="enable-background:new 0 0 1821.4 414.2;" xml:space="preserve">
<style type="text/css">
	.st0{enable-background:new    ;}
	.st1{fill:#E7E5F2;}
</style>
<g>
	
		<image style="overflow:visible;enable-background:new    ;" width="7617" height="1733" xlink:href="2F5E346B60266966.png"  transform="matrix(0.239 0 0 0.239 3.452 0)">
	</image>
</g>
<g class="st0">
	<path class="st1" d="M102.2,295.8L48.9,143.4h14l50.6,148.7h-7.9l53.6-148.7H175l52.1,148.7h-8.2l52.4-148.7h13.4l-53.9,152.3
		h-15.2l-53.6-150.5h9.7l-53.9,150.5H102.2z"/>
	<path class="st1" d="M380.4,297.9c-13.8,0-25.8-3.2-36-9.8c-10.2-6.5-18-15.6-23.6-27.3c-5.6-11.7-8.4-25.5-8.4-41.6
		c0-16,2.8-30,8.5-41.9c5.7-11.9,13.6-21.1,23.8-27.7c10.2-6.6,22-9.9,35.6-9.9c14.8,0,27.2,3.7,37,11c9.8,7.3,16.6,18,20.3,32
		l-3.7,2.7v-42h12.8v152.3H434v-43.9l3.7,2.4c-3.7,14.2-10.4,25-20.3,32.4C407.5,294.2,395.2,297.9,380.4,297.9z M380.7,285.4
		c17.1,0,30.2-5.8,39.5-17.5c9.2-11.7,13.9-28.1,13.9-49.2c0-21.3-4.7-37.7-14-49.2c-9.3-11.5-22.5-17.2-39.6-17.2
		c-16.9,0-30.1,5.9-39.8,17.7c-9.6,11.8-14.5,28.2-14.5,49.4c0,21.1,4.8,37.4,14.5,48.9C350.3,279.7,363.6,285.4,380.7,285.4z"/>
	<path class="st1" d="M476,154.4v-11h89.6v11H476z M564.7,282.7v12.5c-2.8,0.8-5.7,1.4-8.7,1.8c-2.9,0.4-6.1,0.6-9.6,0.6
		c-11.6,0-21.1-3.3-28.6-9.9c-7.5-6.6-11.3-17.2-11.3-31.8V102l12.8-5.5v155.1c0,9.1,1.2,16.1,3.7,21c2.4,4.9,5.8,8.2,10.1,10.1
		c4.3,1.8,9.1,2.7,14.6,2.7c3.5,0,6.4-0.2,8.8-0.6C558.9,284.4,561.7,283.7,564.7,282.7z"/>
	<path class="st1" d="M658.5,297.9c-14.2,0-26.5-3.3-36.9-9.9c-10.4-6.6-18.4-15.8-24.2-27.6c-5.8-11.8-8.7-25.5-8.7-41.1
		c0-15.8,2.9-29.8,8.7-41.7c5.8-12,13.9-21.3,24.4-27.9c10.5-6.6,22.8-9.9,37-9.9c9.9,0,19.5,1.8,28.8,5.5c9.2,3.7,16.9,8.6,23,14.9
		l-6.1,11c-8.3-6.7-16-11.6-23.2-14.6c-7.1-3-14.6-4.6-22.5-4.6c-17.3,0-31,6-41.1,18.1c-10.2,12.1-15.2,28.6-15.2,49.5
		c0,20.7,5,36.9,15.1,48.4c10.1,11.6,23.7,17.4,41,17.4c7.9,0,15.5-1.5,22.7-4.6c7.2-3,15-7.8,23.3-14.3l6.1,10.7
		c-6.3,6.3-14.1,11.3-23.5,15.1C677.8,296,668.3,297.9,658.5,297.9z"/>
	<path class="st1" d="M747.5,295.8V71.5H760v102.4l-3,5.8c3.5-13.2,10.3-23.2,20.6-29.9c10.3-6.7,22.1-10.1,35.5-10.1
		c37,0,55.5,19.3,55.5,57.9v98.1h-12.8v-96.9c0-16-3.3-27.9-9.9-35.5c-6.6-7.6-17.1-11.4-31.5-11.4c-16.3,0-29.4,5-39.3,14.9
		c-10,10-14.9,23.4-14.9,40.2v88.7H747.5z"/>
	<path class="st1" d="M979.3,297.9c-13,0-24.4-2.3-34.3-6.9c-9.9-4.6-17.5-11-22.9-19.2c-5.4-8.2-8.1-17.7-8.1-28.5
		c0-12.4,3.8-23.8,11.3-34.1c7.5-10.4,20.2-21.4,38.1-33.2c14.6-9.3,25.9-17.2,34-23.6c8-6.4,13.6-12.2,16.6-17.4
		c3-5.2,4.6-10.7,4.6-16.6c0-8.9-2.7-16.1-8.2-21.5c-5.5-5.4-12.8-8.1-21.9-8.1c-10.4,0-18.6,2.9-24.8,8.8
		c-6.2,5.9-9.3,13.6-9.3,23.2c0,4.5,0.7,8.7,2.1,12.8c1.4,4.1,3.9,8.7,7.3,13.9c3.5,5.2,8.3,11.6,14.6,19.3l74.3,89.9
		c4.5,5.3,10.1,10.8,16.9,16.5c6.8,5.7,14.8,11.1,23.9,16.1l-8.5,8.8c-9.5-5.5-17.9-11.3-25.1-17.4c-7.2-6.1-12.9-11.7-17.2-16.8
		l-74-89.3c-7.1-8.7-12.7-16.1-16.9-22.1c-4.2-6-7.1-11.5-8.8-16.5c-1.7-5-2.6-10.1-2.6-15.4c0-8.9,2-16.7,5.9-23.3
		c4-6.6,9.5-11.7,16.8-15.4c7.2-3.7,15.7-5.5,25.4-5.5c13.4,0,24.1,3.6,32,10.8c7.9,7.2,11.9,17.1,11.9,29.7c0,7.7-1.7,14.7-5,21
		c-3.4,6.3-9.3,13.1-18,20.3c-8.6,7.2-21,16.1-37,26.7c-11.4,7.5-20.4,14.4-27,20.6c-6.6,6.2-11.3,12.3-14.2,18.3
		c-2.8,6-4.3,12.5-4.3,19.7c0,13,4.8,23.3,14.3,30.9c9.5,7.6,22.4,11.4,38.7,11.4c16.2,0,30.4-4.6,42.3-13.9
		c12-9.2,21.2-22.4,27.7-39.6c6.5-17.2,9.9-37.5,10.4-61.1h13.1c-0.4,19.3-2.9,36.7-7.6,52.3c-4.7,15.5-11.1,28.8-19.2,39.9
		c-8.1,11.1-17.9,19.6-29.2,25.4C1006.1,295,993.4,297.9,979.3,297.9z"/>
	<path class="st1" d="M1120.7,295.8V185.5c0-6.9-0.2-13.9-0.6-21c-0.4-7.1-1-14.1-1.8-21h12.2l2.7,36l-2.7-0.3
		c3.2-13,9.6-22.8,19-29.4c9.4-6.6,20.1-9.9,31.8-9.9c2.4,0,4.7,0.1,6.7,0.2c2,0.1,4.1,0.4,6.1,0.8l-0.9,11.6
		c-3-0.4-7.1-0.6-12.2-0.6c-12,0-21.5,2.7-28.5,8.2c-7,5.5-12,12.3-14.9,20.4c-2.9,8.1-4.4,16.1-4.4,24.1v91.4H1120.7z"/>
	<path class="st1" d="M1339.8,276.6c-6.5,6.5-14.9,11.7-25.1,15.5c-10.3,3.9-20.9,5.8-31.8,5.8c-15,0-28-3.1-39-9.4
		c-11-6.3-19.4-15.3-25.3-27.1c-5.9-11.8-8.8-25.9-8.8-42.3c0-15.8,2.9-29.7,8.8-41.6c5.9-11.9,14.2-21.1,24.8-27.7
		c10.7-6.6,22.9-9.9,36.7-9.9c13,0,24.2,2.8,33.5,8.5c9.3,5.7,16.5,14,21.5,24.8c5,10.9,7.5,24,7.5,39.5v3.7H1221l-0.3-12.5h115.2
		l-5.8,12.5c0.6-20.7-3.4-36.7-12-48c-8.6-11.3-21.3-16.9-37.9-16.9c-17.5,0-31.2,6-41.1,18.1c-10,12.1-14.9,28.6-14.9,49.5
		c0,21.3,5,37.7,15.1,49.2c10.1,11.5,24.4,17.2,43.1,17.2c9.5,0,18.5-1.6,26.8-4.7c8.3-3.1,16.6-8.2,24.7-15.1L1339.8,276.6z"/>
	<path class="st1" d="M1384.9,295.8V71.5h12.5v224.2H1384.9z"/>
	<path class="st1" d="M1508.9,297.9c-13.8,0-25.8-3.2-36-9.8c-10.2-6.5-18-15.6-23.6-27.3c-5.6-11.7-8.4-25.5-8.4-41.6
		c0-16,2.8-30,8.5-41.9c5.7-11.9,13.6-21.1,23.8-27.7c10.2-6.6,22-9.9,35.6-9.9c14.8,0,27.2,3.7,37,11c9.8,7.3,16.6,18,20.3,32
		l-3.7,2.7v-42h12.8v152.3h-12.8v-43.9l3.7,2.4c-3.7,14.2-10.4,25-20.3,32.4C1536,294.2,1523.7,297.9,1508.9,297.9z M1509.2,285.4
		c17.1,0,30.2-5.8,39.5-17.5c9.2-11.7,13.9-28.1,13.9-49.2c0-21.3-4.7-37.7-14-49.2c-9.3-11.5-22.5-17.2-39.6-17.2
		c-16.9,0-30.1,5.9-39.8,17.7c-9.6,11.8-14.5,28.2-14.5,49.4c0,21.1,4.8,37.4,14.5,48.9C1478.7,279.7,1492.1,285.4,1509.2,285.4z"/>
	<path class="st1" d="M1627.7,295.8h-16.5l62.5-78.6l7.9-10.4l50.6-63.4h16.8l-58.8,73.7l-8.5,11L1627.7,295.8z M1735.8,295.8
		l-54.2-67.6l-7.9-11l-59.4-73.7h16.8l50.6,63.4l8.5,10.4l61.8,78.6H1735.8z"/>
</g>
</svg>
